<?xml version="1.0" standalone="no"?>
<!DOCTYPE svg PUBLIC "-//W3C//DTD SVG 20010904//EN"
 "http://www.w3.org/TR/2001/REC-SVG-20010904/DTD/svg10.dtd">
<svg version="1.0" xmlns="http://www.w3.org/2000/svg"
 width="400.000000pt" height="400.000000pt" viewBox="0 0 400.000000 400.000000"
 preserveAspectRatio="xMidYMid meet">

<g transform="translate(0.000000,400.000000) scale(0.100000,-0.100000)"
fill="#000000" stroke="none">
<path d="M1454 3844 c-56 -20 -115 -72 -142 -126 -53 -108 -35 -217 51 -302
58 -58 103 -76 191 -76 l56 0 1 -407 c2 -452 2 -464 -3 -468 -2 -1 -46 -24
-98 -50 -131 -65 -209 -123 -320 -234 -180 -181 -289 -389 -336 -639 -19 -100
-21 -303 -5 -403 82 -503 465 -899 974 -1006 101 -21 330 -23 437 -4 382 69
709 316 880 664 201 409 158 892 -111 1258 -107 146 -295 299 -460 377 l-79
36 0 438 0 438 64 0 c76 0 122 18 177 67 134 121 110 327 -49 421 l-47 27
-570 2 c-481 1 -576 -1 -611 -13z m1156 -161 c51 -30 63 -86 30 -140 -23 -39
-67 -53 -163 -53 -63 0 -70 -2 -105 -34 l-37 -34 0 -505 0 -505 31 -39 c22
-27 62 -54 142 -94 235 -118 389 -274 498 -503 50 -106 82 -214 90 -307 l7
-66 -79 -16 c-119 -24 -192 -28 -311 -17 -258 25 -474 102 -848 304 -185 100
-438 175 -599 177 -28 0 -68 3 -89 7 l-38 7 52 75 c102 145 263 278 424 350
39 17 83 43 98 58 59 55 57 39 57 572 l0 490 -34 37 c-33 37 -36 37 -129 44
-108 8 -130 17 -153 61 -22 42 -11 90 27 122 l31 26 535 0 c481 0 538 -2 563
-17z m-1071 -2398 c28 -14 61 -68 61 -99 0 -35 -30 -86 -62 -106 -38 -23 -82
-25 -118 -7 -32 16 -70 73 -70 104 0 38 30 92 59 108 34 19 95 19 130 0z m930
-415 c44 -23 38 -102 -11 -129 -56 -32 -117 21 -104 90 9 51 61 68 115 39z"/>
<path d="M2515 2074 c-11 -3 -30 -7 -42 -10 -30 -6 -90 -60 -110 -97 -9 -18
-15 -54 -15 -85 1 -165 193 -250 317 -140 70 61 83 170 30 250 -36 54 -123 94
-180 82z m58 -125 c30 -16 37 -28 37 -66 0 -70 -87 -101 -129 -47 -55 70 14
154 92 113z"/>
</g>
</svg>
